<svg width="56" height="56" viewBox="0 0 56 56" fill="none" xmlns="http://www.w3.org/2000/svg">
<path d="M31.0572 9.12924L30.6865 9.07299L30.574 9.8145L30.9447 9.87076L31.0572 9.12924ZM49.0002 30.1451L49.3751 30.1419L49.3751 30.1416L49.0002 30.1451ZM28.2881 51.9984L28.2849 51.6234L28.2832 51.6234L28.2881 51.9984ZM10.001 41H9.62598V41.1009L9.67657 41.1881L10.001 41ZM10.376 40V39.625H9.62598V40H10.376ZM30.9447 9.87076C40.7738 11.3621 48.526 19.617 48.6252 30.1486L49.3751 30.1416C49.2723 19.2246 41.2329 10.6731 31.0572 9.12924L30.9447 9.87076ZM48.6252 30.1483C48.7246 41.8926 39.5829 51.5242 28.2849 51.6234L28.2914 52.3734C40.0292 52.2703 49.4778 42.2743 49.3751 30.1419L48.6252 30.1483ZM28.2832 51.6234C20.7644 51.7225 13.9078 46.9901 10.3254 40.8119L9.67657 41.1881C13.3686 47.5554 20.4547 52.4766 28.2931 52.3734L28.2832 51.6234ZM10.376 41V40H9.62598V41H10.376Z" fill="black"/>
<path d="M7.00093 48.5L7.00098 31C6.90098 20.1 14.9007 11 25.0007 9.5M10.0009 48.5V33.5" stroke="black" stroke-width="0.75" stroke-miterlimit="10" stroke-linecap="round"/>
<path d="M25.0647 12.3695L25.4342 12.3058L25.3068 11.5667L24.9372 11.6305L25.0647 12.3695ZM9.80093 30.8L10.1759 30.7964L10.1759 30.796L9.80093 30.8ZM46.3009 30.5L46.6759 30.4964L46.6759 30.496L46.3009 30.5ZM31.1653 11.7306L30.7959 11.6661L30.6671 12.405L31.0365 12.4694L31.1653 11.7306ZM24.9372 11.6305C16.0494 13.1628 9.32406 21.2266 9.42595 30.804L10.1759 30.796C10.0778 21.5734 16.5524 13.8372 25.0647 12.3695L24.9372 11.6305ZM9.42594 30.8036C9.5278 41.3971 17.8842 49.9772 28.2047 49.875L28.1972 49.125C18.3177 49.2228 10.274 41.0029 10.1759 30.7964L9.42594 30.8036ZM28.2047 49.875C38.5219 49.7728 46.7778 41.0932 46.6759 30.4964L45.9259 30.5036C46.0241 40.7068 38.08 49.0272 28.1972 49.125L28.2047 49.875ZM46.6759 30.496C46.574 21.0211 39.9491 13.2626 31.1653 11.7306L31.0365 12.4694C39.4527 13.9374 45.8278 21.3789 45.9259 30.504L46.6759 30.496Z" fill="black"/>
<path d="M25.0874 17.7648L25.4522 17.6782L25.2791 16.9485L24.9142 17.035L25.0874 17.7648ZM14.8008 30.7999L14.4257 30.7999L14.4258 30.8049L14.8008 30.7999ZM41.2008 30.4999H41.5759L41.5758 30.494L41.2008 30.4999ZM31.1888 17.0354L30.8242 16.9474L30.6482 17.6764L31.0128 17.7644L31.1888 17.0354ZM24.9142 17.035C18.8362 18.4773 14.4258 24.1355 14.4258 30.7999H15.1758C15.1758 24.4643 19.3653 19.1225 25.0874 17.7648L24.9142 17.035ZM14.4258 30.8049C14.5283 38.495 20.5821 44.7779 28.1059 44.6749L28.0956 43.9249C21.0194 44.0219 15.2732 38.1048 15.1757 30.7949L14.4258 30.8049ZM28.1059 44.6749C35.6241 44.5719 41.5758 38.2916 41.5758 30.4999H40.8258C40.8258 37.9082 35.1774 43.8279 28.0956 43.9249L28.1059 44.6749ZM41.5758 30.494C41.4732 23.932 37.1636 18.4776 31.1888 17.0354L31.0128 17.7644C36.6379 19.1222 40.7284 24.2678 40.8259 30.5058L41.5758 30.494Z" fill="black"/>
<path d="M25.0769 15.267L25.444 15.1905L25.291 14.4563L24.9239 14.5328L25.0769 15.267ZM12.5004 30.7999L12.8754 30.7957L12.8754 30.7951L12.5004 30.7999ZM43.6004 30.4999L43.9753 30.4956L43.9753 30.495L43.6004 30.4999ZM31.279 14.5332L30.9123 14.4547L30.7552 15.188L31.1218 15.2666L31.279 14.5332ZM24.9239 14.5328C17.5455 16.0699 12.0232 22.8281 12.1254 30.8047L12.8754 30.7951C12.7776 23.1717 18.0552 16.7299 25.0769 15.267L24.9239 14.5328ZM12.1254 30.8041C12.2276 39.8984 19.385 47.1774 28.2048 47.0749L28.196 46.3249C19.8158 46.4224 12.9732 39.5014 12.8754 30.7957L12.1254 30.8041ZM28.2048 47.0749C37.0221 46.9723 44.0776 39.4922 43.9753 30.4956L43.2254 30.5042C43.3232 39.1076 36.5787 46.2275 28.196 46.3249L28.2048 47.0749ZM43.9753 30.495C43.8731 22.6257 38.4556 16.0711 31.279 14.5332L31.1218 15.2666C37.9452 16.7287 43.1276 22.9741 43.2254 30.5048L43.9753 30.495Z" fill="black"/>
<path d="M28.0018 10L29.5006 13.5H26.6006L28.0018 17" stroke="black" stroke-width="0.75" stroke-miterlimit="10" stroke-linecap="round"/>
<path d="M46.001 41.6997V47.6562M49.001 47.6562V30" stroke="black" stroke-width="0.75" stroke-miterlimit="10" stroke-linecap="round"/>
<rect x="25.376" y="8.375" width="5.25" height="10.25" rx="0.625" stroke="black" stroke-width="0.75"/>
<mask id="path-9-outside-1_36017_53503" maskUnits="userSpaceOnUse" x="45.001" y="47" width="5" height="6" fill="black">
<rect fill="white" x="45.001" y="47" width="5" height="6"/>
<path d="M46.001 48.3C46.001 48.1343 46.1353 48 46.301 48H48.701C48.8667 48 49.001 48.1343 49.001 48.3V52H46.001V48.3Z"/>
</mask>
<path d="M49.001 52V52.75H49.751V52H49.001ZM46.001 52H45.251V52.75H46.001V52ZM46.301 48.75H48.701V47.25H46.301V48.75ZM48.251 48.3V52H49.751V48.3H48.251ZM49.001 51.25H46.001V52.75H49.001V51.25ZM46.751 52V48.3H45.251V52H46.751ZM48.701 48.75C48.4524 48.75 48.251 48.5485 48.251 48.3H49.751C49.751 47.7201 49.2809 47.25 48.701 47.25V48.75ZM46.301 47.25C45.7211 47.25 45.251 47.7201 45.251 48.3H46.751C46.751 48.5485 46.5495 48.75 46.301 48.75V47.25Z" fill="black" mask="url(#path-9-outside-1_36017_53503)"/>
<mask id="path-11-outside-2_36017_53503" maskUnits="userSpaceOnUse" x="6.00098" y="48" width="5" height="6" fill="black">
<rect fill="white" x="6.00098" y="48" width="5" height="6"/>
<path d="M7.00098 49.3C7.00098 49.1343 7.13529 49 7.30098 49H9.70098C9.86666 49 10.001 49.1343 10.001 49.3V53H7.00098V49.3Z"/>
</mask>
<path d="M10.001 53V53.75H10.751V53H10.001ZM7.00098 53H6.25098V53.75H7.00098V53ZM7.30098 49.75H9.70098V48.25H7.30098V49.75ZM9.25098 49.3V53H10.751V49.3H9.25098ZM10.001 52.25H7.00098V53.75H10.001V52.25ZM7.75098 53V49.3H6.25098V53H7.75098ZM9.70098 49.75C9.45245 49.75 9.25098 49.5485 9.25098 49.3H10.751C10.751 48.7201 10.2809 48.25 9.70098 48.25V49.75ZM7.30098 48.25C6.72108 48.25 6.25098 48.7201 6.25098 49.3H7.75098C7.75098 49.5485 7.5495 49.75 7.30098 49.75V48.25Z" fill="black" mask="url(#path-11-outside-2_36017_53503)"/>
<mask id="path-13-inside-3_36017_53503" fill="white">
<path d="M46.001 52H49.001V54.7C49.001 54.8657 48.8667 55 48.701 55H46.401C46.1801 55 46.001 54.8209 46.001 54.6V52Z"/>
</mask>
<path d="M46.001 52V51.25H45.251V52H46.001ZM49.001 52H49.751V51.25H49.001V52ZM46.001 52.75H49.001V51.25H46.001V52.75ZM48.251 52V54.7H49.751V52H48.251ZM48.701 54.25H46.401V55.75H48.701V54.25ZM46.751 54.6V52H45.251V54.6H46.751ZM46.401 54.25C46.5943 54.25 46.751 54.4067 46.751 54.6H45.251C45.251 55.2351 45.7658 55.75 46.401 55.75V54.25ZM48.251 54.7C48.251 54.4515 48.4524 54.25 48.701 54.25V55.75C49.2809 55.75 49.751 55.2799 49.751 54.7H48.251Z" fill="black" mask="url(#path-13-inside-3_36017_53503)"/>
<mask id="path-15-inside-4_36017_53503" fill="white">
<path d="M7.00098 53H10.001V55.7C10.001 55.8657 9.86666 56 9.70098 56H7.40098C7.18006 56 7.00098 55.8209 7.00098 55.6V53Z"/>
</mask>
<path d="M7.00098 53V52.25H6.25098V53H7.00098ZM10.001 53H10.751V52.25H10.001V53ZM7.00098 53.75H10.001V52.25H7.00098V53.75ZM9.25098 53V55.7H10.751V53H9.25098ZM9.70098 55.25H7.40098V56.75H9.70098V55.25ZM7.75098 55.6V53H6.25098V55.6H7.75098ZM7.40098 55.25C7.59428 55.25 7.75098 55.4067 7.75098 55.6H6.25098C6.25098 56.2351 6.76585 56.75 7.40098 56.75V55.25ZM9.25098 55.7C9.25098 55.4515 9.45245 55.25 9.70098 55.25V56.75C10.2809 56.75 10.751 56.2799 10.751 55.7H9.25098Z" fill="black" mask="url(#path-15-inside-4_36017_53503)"/>
</svg>
