<svg width="56" height="56" viewBox="0 0 56 56" fill="none" xmlns="http://www.w3.org/2000/svg">
<circle cx="28" cy="32" r="14.625" stroke="black" stroke-width="0.75"/>
<path d="M34.21 9.72L33.898 9.811V9.811L34.21 9.72ZM21.79 9.72L21.478 9.629L21.79 9.72ZM22.75 9.325H33.25V8.675H22.75V9.325ZM33.898 9.811L37.188 21.091L37.812 20.909L34.522 9.629L33.898 9.811ZM18.812 21.091L22.102 9.811L21.478 9.629L18.188 20.909L18.812 21.091ZM33.25 9.325C33.55 9.325 33.814 9.523 33.898 9.811L34.522 9.629C34.3571 9.06367 33.8389 8.675 33.25 8.675V9.325ZM22.75 8.675C22.1611 8.675 21.6429 9.06367 21.478 9.629L22.102 9.811C22.186 9.523 22.45 9.325 22.75 9.325V8.675Z" fill="black"/>
<path d="M21.79 54.28L22.102 54.189L22.102 54.189L21.79 54.28ZM34.21 54.28L34.522 54.371L34.21 54.28ZM33.25 54.675L22.75 54.675L22.75 55.325L33.25 55.325L33.25 54.675ZM22.102 54.189L18.812 42.909L18.188 43.091L21.478 54.371L22.102 54.189ZM37.188 42.909L33.898 54.189L34.522 54.371L37.812 43.091L37.188 42.909ZM22.75 54.675C22.45 54.675 22.186 54.477 22.102 54.189L21.478 54.371C21.6429 54.9363 22.1611 55.325 22.75 55.325L22.75 54.675ZM33.25 55.325C33.8389 55.325 34.3571 54.9363 34.522 54.371L33.898 54.189C33.814 54.477 33.55 54.675 33.25 54.675L33.25 55.325Z" fill="black"/>
<path d="M21 13H22.7C22.8657 13 23 13.1343 23 13.3V18" stroke="black" stroke-width="0.75"/>
<path d="M35 51L33.3 51C33.1343 51 33 50.8657 33 50.7L33 46" stroke="black" stroke-width="0.75"/>
<path d="M35 13H33.3C33.1343 13 33 13.1343 33 13.3V18" stroke="black" stroke-width="0.75"/>
<path d="M21 51L22.7 51C22.8657 51 23 50.8657 23 50.7L23 46" stroke="black" stroke-width="0.75"/>
<path d="M23 15.4998C24.6667 14.9998 28 14 33 15.4998" stroke="black" stroke-width="0.75"/>
<path d="M33 48.5002C31.3333 49.0002 28 50 23 48.5002" stroke="black" stroke-width="0.75"/>
<path d="M28.375 30C28.375 29.7929 28.2071 29.625 28 29.625C27.7929 29.625 27.625 29.7929 27.625 30H28.375ZM27.625 33C27.625 33.2071 27.7929 33.375 28 33.375C28.2071 33.375 28.375 33.2071 28.375 33H27.625ZM27.625 30V33H28.375V30H27.625Z" fill="black"/>
<path d="M28 31.125C27.7929 31.125 27.625 31.2929 27.625 31.5C27.625 31.7071 27.7929 31.875 28 31.875V31.125ZM29.5 31.875C29.7071 31.875 29.875 31.7071 29.875 31.5C29.875 31.2929 29.7071 31.125 29.5 31.125V31.875ZM26.5 31.125C26.2929 31.125 26.125 31.2929 26.125 31.5C26.125 31.7071 26.2929 31.875 26.5 31.875V31.125ZM28 31.875H29.5V31.125H28V31.875ZM29.5 31.125H26.5V31.875H29.5V31.125Z" fill="black"/>
</svg>
