<svg width="56" height="57" viewBox="0 0 56 57" fill="none" xmlns="http://www.w3.org/2000/svg">
<path d="M39.9781 14.3273H40.7277C40.811 14.3273 40.9776 14.2061 40.9776 13.9638V10.693C40.9776 10.5718 40.8943 10.3295 40.7277 10.3295H39.9781" stroke="black" stroke-width="0.75" stroke-miterlimit="10"/>
<path d="M40.9778 34.3156L41.8193 30.3178M50.9722 34.3156L49.5727 28.6189C49.4727 28.319 49.2729 28.1191 48.9731 28.1191H42.7766C42.4768 28.1191 42.1769 28.319 42.1769 28.6189L41.8193 30.3178M41.8193 30.3178H42.9767V33.3161" stroke="black" stroke-width="0.75" stroke-miterlimit="10" stroke-linecap="round"/>
<path d="M50.9722 50.307L50.1307 54.3048M40.9778 50.307L42.3773 56.0038C42.4772 56.3036 42.6771 56.5035 42.9769 56.5035L49.1734 56.5035C49.4732 56.5035 49.7731 56.3036 49.7731 56.0038L50.1307 54.3048M50.1307 54.3048L48.9733 54.3048L48.9733 51.3065" stroke="black" stroke-width="0.75" stroke-miterlimit="10" stroke-linecap="round"/>
<path d="M47.174 41.9113H46.1746V40.9119C46.1746 40.712 46.0747 40.6121 45.8748 40.6121C45.6749 40.6121 45.5749 40.712 45.5749 40.9119V41.9113H44.5755C44.3756 41.9113 44.2758 42.0113 44.2758 42.2112C44.2758 42.411 44.3756 42.511 44.5755 42.511H45.5749V43.5104C45.5749 43.7103 45.6749 43.8102 45.8748 43.8102C46.0747 43.8102 46.1746 43.7103 46.1746 43.5104V42.511H47.174C47.3739 42.511 47.4739 42.411 47.4739 42.2112C47.4739 42.1112 47.3739 41.9113 47.174 41.9113Z" fill="black"/>
<path d="M48.9733 30.3181V29.9431H48.5983V30.3181H48.9733ZM49.9727 30.6931C50.1798 30.6931 50.3477 30.5252 50.3477 30.3181C50.3477 30.111 50.1798 29.9431 49.9727 29.9431V30.6931ZM48.5983 33.3164C48.5983 33.5235 48.7662 33.6914 48.9733 33.6914C49.1804 33.6914 49.3483 33.5235 49.3483 33.3164H48.5983ZM48.9733 30.6931H49.9727V29.9431H48.9733V30.6931ZM49.3483 33.3164V30.3181H48.5983V33.3164H49.3483Z" fill="black"/>
<path d="M42.9767 54.3045L42.9767 54.6795L43.3517 54.6795L43.3517 54.3045L42.9767 54.3045ZM41.9773 53.9295C41.7702 53.9295 41.6023 54.0974 41.6023 54.3045C41.6023 54.5116 41.7702 54.6795 41.9773 54.6795L41.9773 53.9295ZM43.3517 51.3062C43.3517 51.0991 43.1838 50.9312 42.9767 50.9312C42.7696 50.9312 42.6017 51.0991 42.6017 51.3062L43.3517 51.3062ZM42.9767 53.9295L41.9773 53.9295L41.9773 54.6795L42.9767 54.6795L42.9767 53.9295ZM42.6017 51.3062L42.6017 54.3045L43.3517 54.3045L43.3517 51.3062L42.6017 51.3062Z" fill="black"/>
<path d="M12.1938 41.4116V3.53307C12.1938 2.13386 13.2932 1.03448 14.6924 1.03448H37.1797C38.5789 1.03448 39.6783 2.13386 39.6783 3.53307V32.9164" stroke="black" stroke-width="0.75" stroke-miterlimit="10" stroke-linecap="round"/>
<path d="M39.5784 51.6058V53.8046C39.5784 55.2038 38.479 56.3032 37.0798 56.3032H16.9912" stroke="black" stroke-width="0.75" stroke-miterlimit="10" stroke-linecap="round"/>
<path d="M16.6913 6.13158C16.9673 6.13158 17.191 5.90784 17.191 5.63186C17.191 5.35587 16.9673 5.13214 16.6913 5.13214C16.4153 5.13214 16.1916 5.35587 16.1916 5.63186C16.1916 5.90784 16.4153 6.13158 16.6913 6.13158Z" fill="black"/>
<path d="M23.8873 14.1271L18.0905 19.9238" stroke="black" stroke-width="0.7642" stroke-miterlimit="10" stroke-linecap="round" stroke-linejoin="bevel"/>
<path d="M26.7858 14.4271L18.2906 22.8223" stroke="black" stroke-width="0.7642" stroke-miterlimit="10" stroke-linecap="round" stroke-linejoin="bevel"/>
<path d="M25.8862 18.6245L22.588 21.8227" stroke="black" stroke-width="0.7642" stroke-miterlimit="10" stroke-linecap="round" stroke-linejoin="bevel"/>
<path d="M45.9745 51.6813C51.1494 51.6813 55.3444 47.4862 55.3444 42.3114C55.3444 37.1365 51.1494 32.9415 45.9745 32.9415C40.7997 32.9415 36.6046 37.1365 36.6046 42.3114C36.6046 47.4862 40.7997 51.6813 45.9745 51.6813Z" stroke="black" stroke-width="0.75"/>
<path d="M12.9942 55.9592V47.3086C12.9942 46.3092 12.9942 45.8094 13.394 44.9654C14.1935 43.4663 16.1924 42.8666 18.0913 43.6662C20.0901 44.4657 21.1895 46.4646 20.4899 48.1636C19.7903 49.8627 17.5916 50.5623 15.5927 49.7627C15.5927 49.7627 15.3929 50.3624 15.2929 51.062L15.093 55.9592C15.093 56.1591 14.8932 56.359 14.6933 56.359H13.394C13.1941 56.359 12.9942 56.1591 12.9942 55.9592Z" stroke="black" stroke-width="0.75" stroke-miterlimit="10" stroke-linecap="round" stroke-linejoin="round"/>
<path d="M13.0937 48.1079L13.7934 48.6076" stroke="black" stroke-width="0.75" stroke-miterlimit="10" stroke-linecap="round"/>
<path d="M23.1429 48.8413L23.4987 48.9599L23.1429 48.8413ZM21.5137 46.3651C21.5202 46.3715 21.5375 46.3888 21.5438 46.3952C21.5593 46.4106 21.5433 46.3947 21.5588 46.4101C21.5794 46.4307 21.5531 46.4045 21.5737 46.4251C21.5862 46.4375 21.565 46.4164 21.5775 46.4288C21.5781 46.4294 21.5787 46.4301 21.5793 46.4307C21.5799 46.4313 21.5806 46.4319 21.5812 46.4325C21.5928 46.4442 21.577 46.4283 21.5886 46.44C21.5918 46.4432 21.6004 46.4517 21.6035 46.4549C21.6083 46.4596 21.6062 46.4575 21.6109 46.4623C21.615 46.4664 21.6105 46.4619 21.6146 46.466C21.6158 46.4671 21.6172 46.4685 21.6183 46.4697C21.6215 46.4728 21.63 46.4814 21.6332 46.4845C21.634 46.4853 21.6397 46.4911 21.6405 46.4919C21.642 46.4933 21.6428 46.4942 21.6442 46.4956C21.6449 46.4962 21.6455 46.4968 21.6461 46.4974C21.6467 46.4981 21.6473 46.4987 21.6479 46.4993C21.665 46.5164 21.6456 46.4969 21.6627 46.514C21.6646 46.5159 21.6645 46.5158 21.6664 46.5177C21.667 46.5183 21.6676 46.5189 21.6682 46.5196C21.6688 46.5202 21.6694 46.5208 21.67 46.5214C21.6735 46.5248 21.674 46.5253 21.6774 46.5287C21.6835 46.5349 21.686 46.5373 21.6921 46.5434C21.7035 46.5548 21.688 46.5394 21.6994 46.5508C21.7 46.5514 21.7007 46.552 21.7013 46.5526C21.7019 46.5532 21.7025 46.5538 21.7031 46.5544C21.7053 46.5566 21.7046 46.5559 21.7068 46.5581C21.725 46.5763 21.7032 46.5546 21.7214 46.5728C21.7263 46.5776 21.7312 46.5825 21.736 46.5874C21.7372 46.5886 21.7385 46.5898 21.7397 46.591C21.7403 46.5916 21.7409 46.5922 21.7415 46.5929C21.7421 46.5935 21.7427 46.5941 21.7433 46.5947C21.7439 46.5953 21.7445 46.5959 21.7452 46.5965C21.7458 46.5971 21.7464 46.5977 21.747 46.5983C21.7526 46.604 21.745 46.5963 21.7506 46.602C21.8297 46.681 21.9042 46.7555 21.9824 46.8338C22.0212 46.8725 22.0014 46.8527 22.0402 46.8915C22.0551 46.9065 22.0397 46.891 22.0546 46.906C22.0697 46.921 22.0541 46.9054 22.0691 46.9205C22.073 46.9243 22.0689 46.9202 22.0727 46.9241C22.0762 46.9276 22.0728 46.9242 22.0763 46.9277C22.0945 46.9458 22.0654 46.9168 22.0836 46.9349C22.0987 46.95 22.0829 46.9343 22.0981 46.9494C22.1163 46.9676 22.1088 46.9601 22.1271 46.9784C22.1436 46.995 22.1395 46.9909 22.1561 47.0075C22.1611 47.0125 22.1547 47.0061 22.1597 47.0111C22.1622 47.0135 22.1609 47.0123 22.1634 47.0147C22.1648 47.0161 22.1656 47.0169 22.167 47.0184C22.1676 47.019 22.1682 47.0196 22.1688 47.0202C22.1694 47.0208 22.1701 47.0214 22.1707 47.022C22.1815 47.0328 22.1744 47.0258 22.1852 47.0366C22.1886 47.04 22.1891 47.0405 22.1925 47.0439C22.1992 47.0505 22.1895 47.0408 22.1962 47.0475C22.1979 47.0493 22.198 47.0494 22.1998 47.0512C22.2133 47.0646 22.201 47.0523 22.2144 47.0658C22.2542 47.1055 22.2332 47.0846 22.2731 47.1244C22.2998 47.1512 22.2758 47.1271 22.3026 47.1539C22.3056 47.1569 22.3143 47.1657 22.3174 47.1687C22.3426 47.1939 22.3069 47.1583 22.3322 47.1835C22.3564 47.2078 22.3673 47.2187 22.3918 47.2431C22.4176 47.2689 22.3959 47.2473 22.4218 47.2731C22.4224 47.2738 22.423 47.2744 22.4237 47.275C22.4243 47.2756 22.4249 47.2763 22.4256 47.2769C22.4262 47.2775 22.4268 47.2782 22.4274 47.2788C22.4281 47.2794 22.4287 47.28 22.4293 47.2807C22.4299 47.2813 22.4306 47.2819 22.4312 47.2826C22.4318 47.2832 22.4325 47.2838 22.4331 47.2844C22.4337 47.2851 22.4343 47.2857 22.435 47.2863C22.4356 47.2869 22.4362 47.2876 22.4369 47.2882C22.4522 47.3035 22.4291 47.2804 22.4444 47.2958C22.451 47.3023 22.4416 47.293 22.4482 47.2995C22.4488 47.3002 22.4494 47.3008 22.4501 47.3014C22.4507 47.3021 22.4513 47.3027 22.452 47.3033L22.9823 46.773C22.9788 46.7695 22.9782 46.7689 22.9747 46.7654C22.9708 46.7615 22.9711 46.7618 22.9672 46.7579C22.9635 46.7542 22.9558 46.7465 22.9521 46.7428C22.9263 46.717 22.9479 46.7386 22.9221 46.7128C22.8857 46.6764 22.8987 46.6894 22.8625 46.6532C22.8485 46.6392 22.8469 46.6376 22.8329 46.6236C22.8061 46.5968 22.8302 46.6209 22.8034 46.5941C22.7905 46.5812 22.7575 46.5482 22.7448 46.5354C22.6486 46.4393 22.6079 46.3986 22.5127 46.3034C22.4949 46.2856 22.5162 46.3069 22.4983 46.289C22.4964 46.2871 22.4966 46.2873 22.4947 46.2854C22.4941 46.2848 22.4935 46.2842 22.4929 46.2836C22.4923 46.283 22.4917 46.2824 22.4911 46.2818C22.4881 46.2788 22.4869 46.2775 22.4839 46.2746C22.4731 46.2638 22.4802 46.2709 22.4694 46.2601C22.4631 46.2538 22.4613 46.252 22.455 46.2457C22.4438 46.2345 22.4373 46.2279 22.4261 46.2168C22.4054 46.1961 22.4323 46.223 22.4116 46.2023C22.405 46.1957 22.411 46.2017 22.4044 46.1951C22.3988 46.1895 22.4064 46.1971 22.4008 46.1915C22.4002 46.1909 22.3996 46.1903 22.399 46.1897C22.3984 46.1891 22.3978 46.1884 22.3972 46.1878C22.3954 46.1861 22.341 46.1317 22.3392 46.1299C22.3228 46.1135 22.3265 46.1172 22.3101 46.1008C22.3095 46.1002 22.3089 46.0996 22.3083 46.099C22.3077 46.0984 22.3071 46.0978 22.3065 46.0972C22.3059 46.0965 22.3052 46.0959 22.3046 46.0953C22.304 46.0947 22.3034 46.0941 22.3028 46.0935C22.2947 46.0854 22.3036 46.0943 22.2955 46.0862C22.2887 46.0794 22.2878 46.0785 22.281 46.0716C22.2579 46.0486 22.2894 46.0801 22.2664 46.057C22.2445 46.0352 22.2736 46.0643 22.2517 46.0424C22.2478 46.0385 22.2483 46.039 22.2444 46.0351C22.2408 46.0315 22.2444 46.035 22.2408 46.0314C22.2401 46.0308 22.2395 46.0302 22.2389 46.0296C22.2383 46.029 22.2377 46.0284 22.2371 46.0278C22.2246 46.0152 22.2423 46.033 22.2298 46.0204C22.21 46.0006 22.2422 46.0329 22.2224 46.0131C22.2219 46.0126 22.2193 46.01 22.2188 46.0094C22.2145 46.0052 22.2193 46.01 22.2151 46.0058C22.2145 46.0052 22.2139 46.0045 22.2132 46.0039C22.2126 46.0033 22.212 46.0027 22.2114 46.0021C22.2049 45.9956 22.2142 46.0049 22.2077 45.9984C22.1966 45.9873 22.2041 45.9948 22.193 45.9837C22.1759 45.9666 22.1954 45.986 22.1783 45.969C22.1727 45.9634 22.1764 45.9671 22.1709 45.9616C22.1525 45.9432 22.1819 45.9726 22.1635 45.9542C22.163 45.9537 22.1602 45.9509 22.1598 45.9505C22.1592 45.9499 22.1586 45.9492 22.1579 45.9486C22.1573 45.948 22.1567 45.9474 22.1561 45.9468C22.1502 45.9408 22.1583 45.949 22.1524 45.9431C22.1493 45.94 22.1518 45.9424 22.1487 45.9394C22.1481 45.9388 22.1474 45.9381 22.1468 45.9375C22.1462 45.9369 22.1456 45.9363 22.145 45.9357C22.1409 45.9316 22.1454 45.9361 22.1413 45.932C22.1357 45.9264 22.1394 45.9301 22.1338 45.9245C22.1163 45.907 22.1366 45.9272 22.119 45.9097C22.1026 45.8932 22.1205 45.9112 22.1041 45.8948C22.1017 45.8924 22.0766 45.8672 22.0741 45.8648C22.0508 45.8415 22.0825 45.8732 22.0591 45.8498C22.0591 45.8498 22.0516 45.8423 22.0516 45.8423C22.0488 45.8394 22.0469 45.8376 22.0441 45.8348L21.5137 46.3651ZM22.7871 48.7228L22.5879 49.3204L23.2994 49.5576L23.4987 48.9599L22.7871 48.7228ZM21.0463 50.4316H19.9892V51.1816H21.0463V50.4316ZM19.9892 50.4316C19.6444 50.4316 19.3648 50.152 19.3648 49.8071H18.6148C18.6148 50.5662 19.2302 51.1816 19.9892 51.1816V50.4316ZM22.5879 49.3204C22.3667 49.984 21.7458 50.4316 21.0463 50.4316V51.1816C22.0686 51.1816 22.9762 50.5274 23.2994 49.5576L22.5879 49.3204ZM22.452 47.3033C22.8235 47.6748 22.9533 48.2244 22.7871 48.7228L23.4987 48.9599C23.7546 48.192 23.5546 47.3453 22.9823 46.773L22.452 47.3033ZM20.8244 46.4768C20.9557 46.2142 21.3059 46.1573 21.5137 46.3651L22.0441 45.8348C21.4745 45.2651 20.5139 45.4207 20.1535 46.1414L20.8244 46.4768Z" fill="black"/>
<path d="M11.4931 55.9592V47.3086C11.4931 46.3092 11.4931 45.8094 11.0933 44.9654C10.2937 43.4663 8.29491 42.8666 6.39598 43.6662C4.39712 44.4657 3.29772 46.4646 3.99732 48.1636C4.69692 49.8627 6.8957 50.5623 8.89457 49.7627C8.89457 49.7627 9.09438 50.3624 9.19433 51.062L9.39429 55.9592C9.39429 56.1591 9.59408 56.359 9.79396 56.359H11.0933C11.2932 56.359 11.4931 56.1591 11.4931 55.9592Z" stroke="black" stroke-width="0.75" stroke-miterlimit="10" stroke-linecap="round" stroke-linejoin="round"/>
<path d="M11.3935 48.1079L10.6938 48.6076" stroke="black" stroke-width="0.75" stroke-miterlimit="10" stroke-linecap="round"/>
<path d="M1.77012 47.0382L2.03529 47.3033L1.77012 47.0382ZM1.34436 48.8413L1.70011 48.7228L1.34436 48.8413ZM2.97351 46.3651C2.94598 46.3926 2.97092 46.3677 2.94344 46.3952C2.92661 46.412 2.9303 46.4083 2.91352 46.4251C2.909 46.4296 2.91431 46.4243 2.90979 46.4288C2.90917 46.4294 2.90855 46.4301 2.90793 46.4307C2.90731 46.4313 2.90669 46.4319 2.90607 46.4325C2.90428 46.4343 2.9004 46.4382 2.89862 46.44C2.8815 46.4571 2.90829 46.4303 2.89118 46.4474C2.8837 46.4549 2.89123 46.4474 2.88375 46.4549C2.88331 46.4553 2.87675 46.4619 2.87632 46.4623C2.8742 46.4644 2.87474 46.4639 2.87262 46.466C2.872 46.4666 2.87138 46.4672 2.87076 46.4678C2.87014 46.4685 2.86953 46.4691 2.86891 46.4697C2.86644 46.4722 2.86397 46.4746 2.8615 46.4771C2.84747 46.4911 2.86813 46.4705 2.8541 46.4845C2.85317 46.4854 2.79595 46.5427 2.79517 46.5434C2.77132 46.5673 2.80433 46.5343 2.7805 46.5581C2.77989 46.5587 2.77928 46.5593 2.77867 46.5599C2.77805 46.5606 2.77744 46.5612 2.77683 46.5618C2.77396 46.5646 2.77605 46.5626 2.77317 46.5654C2.7705 46.5681 2.77218 46.5664 2.76951 46.5691C2.76495 46.5737 2.77041 46.5682 2.76585 46.5728C2.76524 46.5734 2.76463 46.574 2.76402 46.5746C2.76341 46.5752 2.7628 46.5758 2.76219 46.5764C2.76159 46.577 2.76098 46.5776 2.76037 46.5782C2.75976 46.5788 2.75915 46.5795 2.75854 46.5801C2.7449 46.5937 2.76852 46.5701 2.75488 46.5837C2.75427 46.5843 2.75367 46.5849 2.75306 46.5855C2.75245 46.5862 2.75184 46.5868 2.75123 46.5874C2.75062 46.588 2.75001 46.5886 2.7494 46.5892C2.7488 46.5898 2.74819 46.5904 2.74758 46.591C2.74697 46.5916 2.74636 46.5922 2.74575 46.5929C2.74514 46.5935 2.74454 46.5941 2.74393 46.5947C2.7408 46.5978 2.74341 46.5952 2.74028 46.5983C2.73616 46.6024 2.74074 46.5979 2.73663 46.602C2.73602 46.6026 2.73541 46.6032 2.73481 46.6038C2.7342 46.6044 2.73359 46.605 2.73298 46.6056C2.71563 46.623 2.74669 46.5919 2.72934 46.6093C2.72437 46.6142 2.72702 46.6116 2.72205 46.6166C2.72129 46.6173 2.71552 46.6231 2.71477 46.6238C2.71263 46.626 2.70962 46.629 2.70749 46.6311C2.7039 46.6347 2.69652 46.6421 2.69294 46.6457C2.6893 46.6493 2.68931 46.6493 2.68568 46.6529C2.67518 46.6634 2.68891 46.6497 2.67841 46.6602C2.67801 46.6606 2.64978 46.6888 2.6494 46.6892C2.62184 46.7168 2.64797 46.6906 2.62043 46.7182C2.595 46.7436 2.53019 46.8084 2.50484 46.8338C2.48895 46.8497 2.46298 46.8756 2.44707 46.8915C2.42905 46.9096 2.43618 46.9024 2.41815 46.9205C2.39947 46.9391 2.42237 46.9162 2.40368 46.9349C2.39773 46.9409 2.40602 46.9326 2.40006 46.9385C2.39946 46.9391 2.39886 46.9397 2.39825 46.9404C2.39765 46.941 2.39705 46.9416 2.39644 46.9422C2.39075 46.9479 2.3949 46.9437 2.3892 46.9494C2.38871 46.9499 2.36071 46.9779 2.3602 46.9784C2.34984 46.9888 2.35606 46.9825 2.34569 46.9929C2.33615 47.0025 2.34796 46.9906 2.33842 47.0002C2.33599 47.0026 2.33358 47.005 2.33115 47.0075C2.32333 47.0153 2.3317 47.0069 2.32388 47.0147C2.31682 47.0218 2.32729 47.0113 2.32024 47.0184C2.31136 47.0272 2.32548 47.0131 2.3166 47.022C2.30319 47.0354 2.31545 47.0232 2.30203 47.0366C2.30143 47.0372 2.30082 47.0378 2.30021 47.0384C2.2996 47.039 2.299 47.0396 2.29839 47.0402C2.29836 47.0402 2.29477 47.0438 2.29474 47.0439C2.28888 47.0497 2.29695 47.0417 2.29109 47.0475C2.28814 47.0505 2.2904 47.0482 2.28745 47.0512C2.28533 47.0533 2.27496 47.0636 2.27284 47.0658C2.26897 47.0696 2.26208 47.0765 2.25821 47.0804C2.24858 47.09 2.26052 47.0781 2.25089 47.0877C2.24531 47.0933 2.2528 47.0858 2.24722 47.0914C2.24677 47.0918 2.24401 47.0946 2.24356 47.095C2.24136 47.0972 2.24208 47.0965 2.23989 47.0987C2.23928 47.0993 2.23867 47.0999 2.23806 47.1006C2.23744 47.1012 2.23683 47.1018 2.23622 47.1024C2.23125 47.1074 2.23385 47.1048 2.22888 47.1097C2.20835 47.1303 2.23472 47.1039 2.21418 47.1244C2.21085 47.1278 2.20279 47.1358 2.19945 47.1392C2.19826 47.1403 2.19326 47.1453 2.19208 47.1465C2.19146 47.1471 2.19085 47.1478 2.19023 47.1484C2.18962 47.149 2.189 47.1496 2.18838 47.1502C2.18777 47.1508 2.18715 47.1515 2.18654 47.1521C2.18592 47.1527 2.18531 47.1533 2.18469 47.1539C2.16243 47.1762 2.17739 47.1612 2.15509 47.1835C2.15149 47.1871 2.14386 47.1948 2.14024 47.1984C2.139 47.1996 2.13776 47.2008 2.13652 47.2021C2.1359 47.2027 2.13528 47.2033 2.13466 47.2039C2.13404 47.2046 2.13342 47.2052 2.1328 47.2058C2.13218 47.2064 2.13156 47.207 2.13094 47.2077C2.13032 47.2083 2.1297 47.2089 2.12908 47.2095C2.12846 47.2101 2.12784 47.2108 2.12722 47.2114C2.1266 47.212 2.12598 47.2126 2.12536 47.2132C2.11738 47.2212 2.10351 47.2351 2.09549 47.2431C2.09479 47.2438 2.06622 47.2724 2.06547 47.2731C2.05931 47.2793 2.06787 47.2707 2.0617 47.2769C2.06108 47.2775 2.06045 47.2782 2.05982 47.2788C2.05919 47.2794 2.05857 47.28 2.05794 47.2807C2.0552 47.2834 2.05691 47.2817 2.05417 47.2844C2.05313 47.2855 2.05145 47.2872 2.0504 47.2882C2.04881 47.2898 2.03689 47.3017 2.03529 47.3033L1.50496 46.773C1.52048 46.7575 1.51967 46.7583 1.53514 46.7428C1.56062 46.7173 1.53973 46.7382 1.56516 46.7128C1.57983 46.6981 1.61027 46.6677 1.62476 46.6532C1.65346 46.6245 1.6553 46.6226 1.68385 46.5941C1.68446 46.5935 1.68507 46.5929 1.68569 46.5923C1.6863 46.5916 1.68691 46.591 1.68753 46.5904C1.68995 46.588 1.68878 46.5892 1.6912 46.5867C1.70842 46.5695 1.67766 46.6003 1.69488 46.5831C1.69549 46.5825 1.6961 46.5818 1.69671 46.5812C1.69733 46.5806 1.69794 46.58 1.69855 46.5794C1.71024 46.5677 1.69421 46.5837 1.70589 46.5721C1.70759 46.5704 1.71153 46.5664 1.71323 46.5647C1.71719 46.5608 1.71659 46.5614 1.72056 46.5574C1.73461 46.5433 1.71382 46.5641 1.72788 46.5501C1.73175 46.5462 1.73864 46.5393 1.74251 46.5354C1.74902 46.5289 1.75061 46.5273 1.75712 46.5208C1.75772 46.5202 1.75833 46.5196 1.75894 46.519C1.75955 46.5184 1.76016 46.5178 1.76076 46.5172C1.76137 46.5166 1.76198 46.516 1.76259 46.5154C1.7632 46.5148 1.7638 46.5141 1.76441 46.5135C1.78456 46.4934 1.75156 46.5264 1.7717 46.5062C1.77382 46.5041 1.77323 46.5047 1.77535 46.5026C1.77595 46.502 1.77656 46.5014 1.77717 46.5008C1.77778 46.5002 1.77838 46.4996 1.77899 46.499C1.77975 46.4982 1.78187 46.4961 1.78263 46.4953C1.78554 46.4924 1.78336 46.4946 1.78627 46.4917C1.79431 46.4836 1.79279 46.4852 1.80082 46.4771C1.80312 46.4748 1.8276 46.4504 1.82987 46.4481C1.83885 46.4391 1.83541 46.4425 1.84438 46.4336C1.85474 46.4232 1.84126 46.4367 1.85163 46.4263C1.86121 46.4167 1.84929 46.4287 1.85887 46.4191C1.86831 46.4096 1.85667 46.4213 1.86611 46.4118C1.8674 46.4105 1.87207 46.4059 1.87335 46.4046C1.87356 46.4044 1.88762 46.3903 1.88782 46.3901C1.88906 46.3889 1.91551 46.3624 1.91674 46.3612C1.91994 46.358 1.94245 46.3355 1.94564 46.3323C1.95305 46.3249 1.9671 46.3108 1.97451 46.3034C2.01217 46.2658 1.99461 46.2833 2.03227 46.2457C2.03288 46.2451 2.03348 46.2445 2.03408 46.2439C2.03468 46.2433 2.03528 46.2427 2.03589 46.2421C2.03649 46.2415 2.03709 46.2409 2.03769 46.2403C2.03829 46.2397 2.03889 46.2391 2.0395 46.2384C2.0423 46.2356 2.04392 46.234 2.04672 46.2312C2.04793 46.23 2.04913 46.2288 2.05033 46.2276C2.05094 46.227 2.05154 46.2264 2.05214 46.2258C2.05274 46.2252 2.05334 46.2246 2.05395 46.224C2.05455 46.2234 2.05515 46.2228 2.05575 46.2222C2.05636 46.2216 2.05696 46.221 2.05756 46.2204C2.05816 46.2198 2.05876 46.2192 2.05937 46.2186C2.05997 46.218 2.06057 46.2174 2.06117 46.2168C2.07325 46.2047 2.07802 46.1999 2.0901 46.1878C2.1418 46.1362 2.15429 46.1237 2.2063 46.0716C2.21112 46.0668 2.23067 46.0473 2.23552 46.0424C2.23656 46.0414 2.26376 46.0142 2.26483 46.0131C2.26562 46.0123 2.32284 45.9551 2.32377 45.9542C2.36638 45.9116 2.39982 45.8781 2.44318 45.8348L2.97351 46.3651ZM1.70011 48.7228L1.89934 49.3204L1.18783 49.5576L0.988599 48.9599L1.70011 48.7228ZM3.44095 50.4316H4.49802V51.1816H3.44095V50.4316ZM4.49802 50.4316C4.84288 50.4316 5.12245 50.152 5.12245 49.8071H5.87245C5.87245 50.5662 5.2571 51.1816 4.49802 51.1816V50.4316ZM1.89934 49.3204C2.12053 49.984 2.7415 50.4316 3.44095 50.4316V51.1816C2.41868 51.1816 1.5111 50.5274 1.18783 49.5576L1.89934 49.3204ZM2.03529 47.3033C1.66379 47.6748 1.534 48.2244 1.70011 48.7228L0.988599 48.9599C0.732625 48.192 0.932643 47.3453 1.50496 46.773L2.03529 47.3033ZM3.66289 46.4768C3.53157 46.2142 3.18131 46.1573 2.97351 46.3651L2.44318 45.8348C3.0128 45.2651 3.97335 45.4207 4.33371 46.1414L3.66289 46.4768Z" fill="black"/>
</svg>
