<svg width="56" height="56" viewBox="0 0 56 56" fill="none" xmlns="http://www.w3.org/2000/svg">
<path d="M47.6998 29.8832C46.8998 27.2832 44.6998 24.9832 41.6998 23.7832C37.0998 21.9832 32.1998 23.3832 30.1998 26.9832C29.9998 27.3832 29.7998 27.7832 29.6998 28.2832C29.4998 29.1832 29.3998 30.1832 29.3998 31.1832V53.6832C29.3998 54.2832 29.8998 54.7832 30.4998 54.7832H33.5998C34.1998 54.7832 34.6998 54.2832 34.6998 53.7832L35.0998 41.7832C35.0998 40.6832 35.3998 39.6832 35.7998 38.6832C38.8998 39.8832 42.0004 39.6831 44.5004 38.1831" stroke="black" stroke-width="0.75" stroke-miterlimit="10" stroke-linecap="round" stroke-linejoin="round"/>
<path d="M29.3998 34.8832L31.1998 36.2832" stroke="black" stroke-width="0.75" stroke-miterlimit="10" stroke-linecap="round"/>
<path d="M49.7998 28.0832L52.4998 30.4832C53.6998 31.5832 54.3998 33.1832 54.4998 34.7832C54.4998 36.7832 53.8998 38.8832 51.7998 40.3832C50.4998 41.3832 48.3998 41.5832 46.7998 41.2832L44.6998 40.8832C44.0998 40.7832 43.7998 40.1832 43.9998 39.5832L48.3998 28.2832C48.4998 27.8832 49.2998 27.6832 49.7998 28.0832Z" stroke="black" stroke-width="0.75" stroke-miterlimit="10" stroke-linecap="round"/>
<path d="M29.3998 39.7832L34.8998 47.6832" stroke="black" stroke-width="0.75" stroke-miterlimit="10" stroke-linecap="round"/>
<path d="M7.79999 29.8832C8.59999 27.2832 10.8 24.9832 13.8 23.7832C18.4 21.9832 23.3 23.3832 25.3 26.9832C25.5 27.3832 25.7 27.7832 25.8 28.2832C26 29.1832 26.1 30.1832 26.1 31.1832V53.6832C26.1 54.2832 25.6 54.7832 25 54.7832H21.9C21.3 54.7832 20.8 54.2832 20.8 53.7832L20.4 41.7832C20.4 40.6832 20.1 39.6832 19.7 38.6832C16.6 39.8832 13.4994 39.6831 10.9994 38.1831" stroke="black" stroke-width="0.75" stroke-miterlimit="10" stroke-linecap="round" stroke-linejoin="round"/>
<path d="M26.1 34.8832L24.3 36.2832" stroke="black" stroke-width="0.75" stroke-miterlimit="10" stroke-linecap="round"/>
<path d="M5.70002 28.0832L3 30.4832C1.8 31.5832 1.1 33.1832 1 34.7832C1 36.7832 1.60002 38.8832 3.70002 40.3832C5.00002 41.3832 7.10002 41.5832 8.70002 41.2832L10.8 40.8832C11.4 40.7832 11.7 40.1832 11.5 39.5832L7.10001 28.2832C7.00001 27.8832 6.20002 27.6832 5.70002 28.0832Z" stroke="black" stroke-width="0.75" stroke-miterlimit="10" stroke-linecap="round"/>
<path d="M26.1 39.7832L20.6 47.6832" stroke="black" stroke-width="0.75" stroke-miterlimit="10" stroke-linecap="round"/>
</svg>
