<svg width="56" height="56" viewBox="0 0 56 56" fill="none" xmlns="http://www.w3.org/2000/svg">
<path d="M37.4996 8.2844L37.3751 8.6381L37.4996 8.2844ZM19.9996 8.28405L20.1013 8.64502L19.9996 8.28405ZM42.1246 11.0445L41.8864 11.334L42.1246 11.0445ZM45.9068 52.2435L46.2811 52.2209L45.9068 52.2435ZM43.0435 55.2845L43.0435 54.9095L43.0435 55.2845ZM12.9556 55.2848L12.9556 55.6598L12.9556 55.2848ZM11.9906 14.4975L9.71815 52.2215L10.4668 52.2666L12.7393 14.5426L11.9906 14.4975ZM12.9556 55.6598L43.0435 55.6595L43.0435 54.9095L12.9556 54.9098L12.9556 55.6598ZM46.2811 52.2209L43.9854 14.1116L43.2367 14.1567L45.5325 52.266L46.2811 52.2209ZM42.3629 10.7549C41.2339 9.82596 39.5107 8.59518 37.6242 7.9307L37.3751 8.6381C39.1399 9.25974 40.7834 10.4266 41.8864 11.334L42.3629 10.7549ZM37.6242 7.9307C32.1891 6.01631 25.3979 6.37457 19.898 7.92309L20.1013 8.64502C25.5027 7.12422 32.1282 6.79002 37.3751 8.6381L37.6242 7.9307ZM19.898 7.92309C17.7188 8.53664 15.5767 9.74942 14.1291 10.6837L14.5358 11.3138C15.9609 10.3941 18.0291 9.22845 20.1013 8.64502L19.898 7.92309ZM43.9854 14.1116C43.9084 12.8331 43.3803 11.5919 42.3629 10.7549L41.8864 11.334C42.7156 12.0162 43.17 13.0483 43.2367 14.1567L43.9854 14.1116ZM44.9896 55.0108C45.8615 54.3569 46.3467 53.3088 46.2811 52.2209L45.5325 52.266C45.5829 53.1024 45.2099 53.9081 44.5396 54.4108L44.9896 55.0108ZM43.0435 55.6595C43.7453 55.6595 44.4281 55.4319 44.9896 55.0108L44.5396 54.4108C44.108 54.7345 43.583 54.9095 43.0435 54.9095L43.0435 55.6595ZM11.0098 55.0114C11.5712 55.4323 12.2539 55.6598 12.9556 55.6598L12.9556 54.9098C12.4162 54.9098 11.8913 54.7349 11.4598 54.4113L11.0098 55.0114ZM9.71815 52.2215C9.65261 53.3094 10.1379 54.3575 11.0098 55.0114L11.4598 54.4113C10.7895 53.9087 10.4164 53.1029 10.4668 52.2666L9.71815 52.2215ZM12.7393 14.5426C12.8188 13.2232 13.4519 12.0134 14.5358 11.3138L14.1291 10.6837C12.8187 11.5294 12.0825 12.9723 11.9906 14.4975L12.7393 14.5426Z" fill="black"/>
<path d="M43.4996 14.1597C43.7814 14.1597 44.2322 14.3215 44.788 14.8627C45.3387 15.3989 45.9628 16.2805 46.5835 17.6404C47.825 20.3603 49.0277 24.9373 49.6259 32.315L50.3734 32.2544C49.7716 24.832 48.5576 20.159 47.2658 17.329C46.6198 15.9138 45.9481 14.9455 45.3112 14.3254C44.6796 13.7103 44.0512 13.4097 43.4996 13.4097V14.1597ZM49.6259 32.315C50.2237 39.6882 49.6807 44.5126 48.7778 47.54C48.3264 49.0533 47.7882 50.1073 47.2664 50.8055C46.7407 51.5089 46.2502 51.8276 45.901 51.9229L46.0983 52.6465C46.6657 52.4917 47.2835 52.0354 47.8672 51.2545C48.4548 50.4683 49.027 49.3286 49.4965 47.7543C50.4352 44.6068 50.9756 39.6812 50.3734 32.2544L49.6259 32.315Z" fill="black"/>
<path d="M12.7526 14.1597C12.4708 14.1597 12.02 14.3215 11.4642 14.8627C10.9135 15.3989 10.2894 16.2805 9.6687 17.6404C8.42717 20.3603 7.22452 24.9373 6.62634 32.315L5.87879 32.2544C6.4806 24.832 7.69462 20.159 8.98642 17.329C9.63238 15.9138 10.3041 14.9455 10.941 14.3254C11.5726 13.7103 12.201 13.4097 12.7526 13.4097V14.1597ZM6.62634 32.315C6.02851 39.6882 6.57151 44.5126 7.47442 47.54C7.92575 49.0533 8.46396 50.1073 8.98575 50.8055C9.51145 51.5089 10.002 51.8276 10.3512 51.9229L10.1539 52.6465C9.5865 52.4917 8.96867 52.0354 8.385 51.2545C7.79741 50.4683 7.22521 49.3286 6.75571 47.7543C5.81695 44.6068 5.27662 39.6812 5.87879 32.2544L6.62634 32.315Z" fill="black"/>
<path d="M13.4996 42.2847L13.3918 41.9253L13.381 41.9289L13.4996 42.2847ZM10.6182 43.6404L13.6182 42.6404L13.381 41.9289L10.381 42.9289L10.6182 43.6404ZM13.6074 42.6439C15.2302 42.157 20.4255 41.1597 27.9996 41.1597V40.4097C20.3738 40.4097 15.1024 41.4123 13.3919 41.9255L13.6074 42.6439ZM27.9996 41.1597C35.5656 41.1597 42.9332 42.4884 45.403 43.147L45.5963 42.4223C43.0661 41.7476 35.6336 40.4097 27.9996 40.4097V41.1597Z" fill="black"/>
<path d="M26.2118 34.0725L27.7875 32.4968C27.9047 32.3796 28.0946 32.3796 28.2118 32.4968L29.7875 34.0725C29.9047 34.1897 29.9047 34.3796 29.7875 34.4968L28.2118 36.0725C28.0946 36.1897 27.9047 36.1897 27.7875 36.0725L26.2118 34.4968C26.0946 34.3796 26.0946 34.1897 26.2118 34.0725Z" stroke="black" stroke-width="0.75"/>
</svg>
