<svg width="56" height="56" viewBox="0 0 56 56" fill="none" xmlns="http://www.w3.org/2000/svg">
<path d="M41.0018 13.9609H41.8855C41.9837 13.9609 42.0819 13.8627 42.0819 13.6663V11.0152C42.0819 10.917 41.9837 10.7206 41.8855 10.7206H41.0018" stroke="black" stroke-width="0.75" stroke-miterlimit="10" stroke-linecap="round"/>
<path d="M38.5471 55.2H16.4547C15.0801 55.2 14 54.1199 14 52.7453V3.45471C14 2.08007 15.0801 1 16.4547 1H38.5471C39.9217 1 41.0018 2.08007 41.0018 3.45471V52.7453C41.0018 54.1199 39.9217 55.2 38.5471 55.2Z" stroke="black" stroke-width="0.75" stroke-miterlimit="10" stroke-linecap="round"/>
<path d="M25.979 13.9609L20.2841 19.6558" stroke="black" stroke-width="0.7642" stroke-miterlimit="10" stroke-linecap="round" stroke-linejoin="bevel"/>
<path d="M28.8265 14.2554L20.4804 22.5033" stroke="black" stroke-width="0.7642" stroke-miterlimit="10" stroke-linecap="round" stroke-linejoin="bevel"/>
<path d="M27.9427 18.3793L24.6043 21.5214" stroke="black" stroke-width="0.7642" stroke-miterlimit="10" stroke-linecap="round" stroke-linejoin="bevel"/>
<path d="M19.204 6.00764C19.4751 6.00764 19.6949 5.78784 19.6949 5.5167C19.6949 5.24556 19.4751 5.02576 19.204 5.02576C18.9328 5.02576 18.713 5.24556 18.713 5.5167C18.713 5.78784 18.9328 6.00764 19.204 6.00764Z" fill="black"/>
</svg>
