<svg width="56" height="56" viewBox="0 0 56 56" fill="none" xmlns="http://www.w3.org/2000/svg">
<g clip-path="url(#clip0_36011_53474)">
<path d="M33.5 49.2V53.2C33.5 54.6 32.4 55.7 31 55.7H8.5C7.1 55.7 6 54.6 6 53.2V3C6 1.6 7.1 0.5 8.5 0.5H31C32.4 0.5 33.5 1.6 33.5 3V31.2" stroke="black" stroke-width="0.75" stroke-miterlimit="10" stroke-linecap="round"/>
<path d="M36.5 30.7002L37.3798 26.5669M47.5 30.7002L45.9996 24.6781C45.8885 24.3448 45.6663 24.1226 45.333 24.1226H38.4441C38.1108 24.1226 37.7773 24.3448 37.7773 24.6781L37.3798 26.5669M37.3798 26.5669H38.6666V29.7002" stroke="black" stroke-width="0.75" stroke-miterlimit="10" stroke-linecap="square"/>
<path d="M47.5554 48.7897L46.62 53.2342M36.4443 48.7897L38.0002 55.123C38.1113 55.4564 38.3335 55.6786 38.6668 55.6786L45.5556 55.6786C45.889 55.6786 46.2224 55.4564 46.2224 55.123L46.62 53.2342M46.62 53.2342L45.3332 53.2342L45.3332 49.9009" stroke="black" stroke-width="0.75" stroke-miterlimit="10" stroke-linecap="square"/>
<path d="M43.333 39.4559H42.2218V38.3448C42.2218 38.1226 42.1108 38.0115 41.8886 38.0115C41.6664 38.0115 41.5552 38.1226 41.5552 38.3448V39.4559H40.4441C40.2219 39.4559 40.1108 39.567 40.1108 39.7893C40.1108 40.0115 40.2219 40.1226 40.4441 40.1226H41.5552V41.2337C41.5552 41.4559 41.6664 41.567 41.8886 41.567C42.1108 41.567 42.2218 41.4559 42.2218 41.2337V40.1226H43.333C43.5552 40.1226 43.6663 40.0115 43.6663 39.7893C43.6663 39.6781 43.5552 39.4559 43.333 39.4559Z" fill="black"/>
<path d="M45.3333 26.5673V26.1923H44.9583V26.5673H45.3333ZM46.4444 26.9423C46.6515 26.9423 46.8194 26.7744 46.8194 26.5673C46.8194 26.3602 46.6515 26.1923 46.4444 26.1923V26.9423ZM44.9583 29.7001C44.9583 29.9072 45.1261 30.0751 45.3333 30.0751C45.5404 30.0751 45.7083 29.9072 45.7083 29.7001H44.9583ZM45.3333 26.9423H46.4444V26.1923H45.3333V26.9423ZM45.7083 29.7001V26.5673H44.9583V29.7001H45.7083Z" fill="black"/>
<path d="M38.6665 53.2339L38.6665 53.6089L39.0415 53.6089L39.0415 53.2339L38.6665 53.2339ZM37.5554 52.8589C37.3483 52.8589 37.1804 53.0268 37.1804 53.2339C37.1804 53.441 37.3483 53.6089 37.5554 53.6089L37.5554 52.8589ZM39.0415 49.9006C39.0415 49.6934 38.8736 49.5256 38.6665 49.5256C38.4594 49.5256 38.2915 49.6934 38.2915 49.9006L39.0415 49.9006ZM38.6665 52.8589L37.5554 52.8589L37.5554 53.6089L38.6665 53.6089L38.6665 52.8589ZM38.2915 49.9006L38.2915 53.2339L39.0415 53.2339L39.0415 49.9006L38.2915 49.9006Z" fill="black"/>
<circle cx="42" cy="39.7002" r="10.375" stroke="black" stroke-width="0.75"/>
<path d="M17.8 13.6L12 19.4" stroke="black" stroke-width="0.7642" stroke-miterlimit="10" stroke-linecap="round" stroke-linejoin="bevel"/>
<path d="M20.7 13.9L12.2 22.3" stroke="black" stroke-width="0.7642" stroke-miterlimit="10" stroke-linecap="round" stroke-linejoin="bevel"/>
<path d="M19.8 18.1L16.5 21.3" stroke="black" stroke-width="0.7642" stroke-miterlimit="10" stroke-linecap="round" stroke-linejoin="bevel"/>
<path d="M10.7 5.59998C10.9761 5.59998 11.2 5.37612 11.2 5.09998C11.2 4.82383 10.9761 4.59998 10.7 4.59998C10.4238 4.59998 10.2 4.82383 10.2 5.09998C10.2 5.37612 10.4238 5.59998 10.7 5.59998Z" fill="black"/>
<path d="M33.5 13.7002H34.75C34.8333 13.7002 35 13.579 35 13.3366V10.0638C35 9.94262 34.9166 9.7002 34.75 9.7002C34.75 9.7002 33.7929 9.7002 33.5 9.7002" stroke="black" stroke-width="0.75" stroke-miterlimit="10"/>
</g>
<defs>
<clipPath id="clip0_36011_53474">
<rect width="56" height="56" fill="white"/>
</clipPath>
</defs>
</svg>
