<svg width="56" height="56" viewBox="0 0 56 56" fill="none" xmlns="http://www.w3.org/2000/svg">
<path d="M26 0.375H45C47.5543 0.375 49.625 2.44568 49.625 5V51C49.625 53.5543 47.5543 55.625 45 55.625H38.75C38.5429 55.625 38.375 55.4571 38.375 55.25C38.375 54.6287 37.8713 54.125 37.25 54.125H33.75C33.1287 54.125 32.625 54.6287 32.625 55.25C32.625 55.4571 32.4571 55.625 32.25 55.625H26C23.4457 55.625 21.375 53.5543 21.375 51V5C21.375 2.44568 23.4457 0.375 26 0.375Z" stroke="black" stroke-width="0.75"/>
<path d="M15.9992 20.1997L10.1992 25.9997" stroke="black" stroke-width="0.7642" stroke-miterlimit="10" stroke-linecap="round" stroke-linejoin="bevel"/>
<path d="M18.8992 20.4998L10.3992 28.9998" stroke="black" stroke-width="0.7642" stroke-miterlimit="10" stroke-linecap="round" stroke-linejoin="bevel"/>
<path d="M17.9992 24.7997L14.5992 27.9997" stroke="black" stroke-width="0.7642" stroke-miterlimit="10" stroke-linecap="round" stroke-linejoin="bevel"/>
<path d="M31.6996 19.7998H26.0996C24.9996 19.7998 24.0996 18.8998 24.0996 17.7998V5.7998C24.0996 4.6998 24.9996 3.7998 26.0996 3.7998H31.6996C32.7996 3.7998 33.6996 4.6998 33.6996 5.7998V17.8998C33.6996 18.8998 32.7996 19.7998 31.6996 19.7998Z" stroke="black" stroke-width="0.7642" stroke-miterlimit="10" stroke-linecap="round"/>
<path d="M21.5 0.875C21.7071 0.875 21.875 0.707107 21.875 0.5C21.875 0.292893 21.7071 0.125 21.5 0.125V0.875ZM21.5 55.875C21.7071 55.875 21.875 55.7071 21.875 55.5C21.875 55.2929 21.7071 55.125 21.5 55.125V55.875ZM11 0.875H21.5V0.125H11V0.875ZM21.5 55.125H11V55.875H21.5V55.125ZM6.375 50.5V5.5H5.625V50.5H6.375ZM11 55.125C8.44568 55.125 6.375 53.0543 6.375 50.5H5.625C5.625 53.4685 8.03147 55.875 11 55.875V55.125ZM11 0.125C8.03147 0.125 5.625 2.53147 5.625 5.5H6.375C6.375 2.94568 8.44568 0.875 11 0.875V0.125Z" fill="black"/>
</svg>
